<svg width="40" height="57" viewBox="0 0 40 57" fill="none" xmlns="http://www.w3.org/2000/svg">
<circle cx="38.2022" cy="1.41489" r="1.41489" fill="#333333"/>
<circle cx="21.6275" cy="13.1383" r="1.41489" fill="#333333"/>
<circle cx="6.67026" cy="23.6489" r="1.41489" fill="#333333"/>
<circle cx="20.0106" cy="30.9255" r="1.41489" fill="#333333"/>
<circle cx="31.3297" cy="28.5" r="1.41489" fill="#333333"/>
<circle cx="6.67026" cy="31.734" r="1.41489" fill="#333333"/>
<circle cx="2.62754" cy="32.9468" r="1.41489" fill="#333333"/>
<circle cx="2.62754" cy="32.9468" r="1.41489" fill="#333333"/>
<circle cx="13.9469" cy="55.5851" r="1.41489" fill="#333333"/>
<circle cx="15.5638" cy="46.2872" r="1.41489" fill="#333333"/>
<circle cx="24.8617" cy="44.266" r="1.41489" fill="#333333"/>
<circle cx="27.6915" cy="47.0958" r="1.41489" fill="#333333"/>
<circle cx="35.3724" cy="52.3511" r="1.41489" fill="#333333"/>
<circle cx="1.41489" cy="37.3937" r="1.41489" fill="#333333"/>
<line x1="38.2935" y1="1.61757" x2="22.1233" y2="13.341" stroke="#333333"/>
<line x1="22.1214" y1="13.3423" x2="6.35548" y2="24.6615" stroke="#333333"/>
<line x1="19.9732" y1="31.1623" x2="6.6328" y2="23.8857" stroke="#333333"/>
<line x1="32.0343" y1="28.7881" x2="19.9067" y2="31.2137" stroke="#333333"/>
<line x1="6.96802" y1="23.8511" x2="6.96802" y2="31.9362" stroke="#333333"/>
<line x1="2.28186" y1="32.67" x2="6.32442" y2="31.4572" stroke="#333333"/>
<line x1="2.90792" y1="33.2805" x2="1.69515" y2="37.7273" stroke="#333333"/>
<line x1="13.7372" y1="56.0709" x2="1.20526" y2="37.8794" stroke="#333333"/>
<line x1="13.6557" y1="55.705" x2="15.2727" y2="46.0029" stroke="#333333"/>
<line x1="25.1699" y1="44.5524" x2="15.8721" y2="46.5737" stroke="#333333"/>
<line x1="25.44" y1="43.7346" x2="28.2698" y2="46.9686" stroke="#333333"/>
<line x1="35.3075" y1="52.5717" x2="27.6266" y2="47.7206" stroke="#333333"/>
</svg>
