<svg width="39" height="62" viewBox="0 0 39 62" fill="none" xmlns="http://www.w3.org/2000/svg">
<circle cx="24.1041" cy="1.89583" r="1.89583" fill="#333333"/>
<circle cx="24.6458" cy="8.39583" r="1.89583" fill="#333333"/>
<circle cx="14.8958" cy="38.7292" r="1.89583" fill="#333333"/>
<circle cx="8.39583" cy="46.3125" r="1.89583" fill="#333333"/>
<circle cx="3.52083" cy="54.4375" r="1.89583" fill="#333333"/>
<circle cx="1.89583" cy="59.8542" r="1.89583" fill="#333333"/>
<circle cx="9.47908" cy="57.1458" r="1.89583" fill="#333333"/>
<circle cx="19.7708" cy="54.4375" r="1.89583" fill="#333333"/>
<circle cx="29.5208" cy="47.9375" r="1.89583" fill="#333333"/>
<circle cx="37.1041" cy="44.6875" r="1.89583" fill="#333333"/>
<circle cx="36.5623" cy="38.7292" r="1.89583" fill="#333333"/>
<line x1="24.3318" y1="2.1251" x2="24.8734" y2="8.6251" stroke="#333333"/>
<line x1="36.3679" y1="39.1828" x2="24.4512" y2="8.84949" stroke="#333333"/>
<line x1="36.7897" y1="38.9547" x2="37.3314" y2="44.9131" stroke="#333333"/>
<line x1="29.582" y1="47.7544" x2="36.6236" y2="44.5044" stroke="#333333"/>
<line x1="29.5107" y1="48.635" x2="19.7607" y2="54.5933" stroke="#333333"/>
<line x1="9.61618" y1="56.9349" x2="19.3662" y2="54.2265" stroke="#333333"/>
<line x1="9.90811" y1="57.3493" x2="1.78311" y2="60.0577" stroke="#333333"/>
<line x1="3.72434" y1="54.8665" x2="2.09934" y2="59.7415" stroke="#333333"/>
<line x1="3.37116" y1="53.8962" x2="8.24616" y2="46.3129" stroke="#333333"/>
<line x1="15.0154" y1="38.7707" x2="8.51544" y2="46.8957" stroke="#333333"/>
<line x1="14.6913" y1="38.3029" x2="24.4413" y2="8.51119" stroke="#333333"/>
</svg>
