<svg width="67" height="58" viewBox="0 0 67 58" fill="none" xmlns="http://www.w3.org/2000/svg">
<circle cx="11.7391" cy="38.0812" r="2.00428" fill="#333333"/>
<circle cx="6.58582" cy="43.8077" r="2.00428" fill="#333333"/>
<circle cx="2.00428" cy="48.3889" r="2.00428" fill="#333333"/>
<circle cx="9.44886" cy="54.6881" r="2.00428" fill="#333333"/>
<circle cx="20.329" cy="55.2607" r="2.00428" fill="#333333"/>
<circle cx="30.0643" cy="52.9702" r="2.00428" fill="#333333"/>
<circle cx="32.3549" cy="43.8077" r="2.00428" fill="#333333"/>
<circle cx="34.6451" cy="33.5001" r="2.00428" fill="#333333"/>
<circle cx="42.6625" cy="20.9017" r="2.00428" fill="#333333"/>
<circle cx="46.671" cy="16.8932" r="2.00428" fill="#333333"/>
<circle cx="52.3976" cy="14.6025" r="2.00428" fill="#333333"/>
<circle cx="64.9957" cy="10.594" r="2.00428" fill="#333333"/>
<circle cx="62.1327" cy="2.00428" r="2.00428" fill="#333333"/>
<circle cx="64.9957" cy="17.4658" r="2.00428" fill="#333333"/>
<circle cx="63.8507" cy="26.6282" r="2.00428" fill="#333333"/>
<line x1="12.3601" y1="38.7392" x2="6.63362" y2="43.8931" stroke="#333333"/>
<line x1="1.91424" y1="48.346" x2="5.92279" y2="43.7648" stroke="#333333"/>
<line x1="2.62839" y1="48.3067" x2="9.50019" y2="54.6059" stroke="#333333"/>
<line x1="20.5905" y1="55.4739" x2="9.13751" y2="54.9012" stroke="#333333"/>
<line x1="20.501" y1="55.0603" x2="30.236" y2="52.7697" stroke="#333333"/>
<line x1="32.5608" y1="43.6084" x2="30.8428" y2="53.3434" stroke="#333333"/>
<line x1="32.1542" y1="43.407" x2="34.4448" y2="33.6719" stroke="#333333"/>
<line x1="42.8033" y1="20.8754" x2="34.7862" y2="34.0463" stroke="#333333"/>
<line x1="42.6233" y1="20.2358" x2="46.6319" y2="16.7999" stroke="black"/>
<line x1="52.8545" y1="14.7861" x2="46.5553" y2="17.0767" stroke="black"/>
<line x1="52.532" y1="14.4125" x2="65.1303" y2="10.4039" stroke="black"/>
<line x1="62.3107" y1="2.10489" x2="65.7466" y2="10.6946" stroke="black"/>
<line x1="64.7835" y1="17.7138" x2="65.3561" y2="10.2693" stroke="black"/>
<line x1="65.2056" y1="17.8142" x2="64.0603" y2="26.9766" stroke="black"/>
</svg>
