<svg width="57" height="47" viewBox="0 0 57 47" fill="none" xmlns="http://www.w3.org/2000/svg">
<circle cx="9" cy="2" r="2" fill="#333333"/>
<circle cx="13" cy="3" r="2" fill="#333333"/>
<circle cx="20" cy="4" r="2" fill="#333333"/>
<circle cx="39" cy="15" r="2" fill="#333333"/>
<circle cx="48" cy="19" r="2" fill="#333333"/>
<circle cx="55" cy="19" r="2" fill="#333333"/>
<circle cx="43" cy="36" r="2" fill="#333333"/>
<circle cx="39" cy="45" r="2" fill="#333333"/>
<circle cx="16" cy="25" r="2" fill="#333333"/>
<circle cx="3" cy="20" r="2" fill="#333333"/>
<circle cx="2" cy="12" r="2" fill="#333333"/>
<line x1="9.23267" y1="1.79652" x2="13.818" y2="2.3697" stroke="#333333"/>
<line x1="13.3144" y1="2.38346" x2="19.6193" y2="4.10297" stroke="#333333"/>
<line x1="38.1629" y1="15.3414" x2="19.2483" y2="5.02434" stroke="#333333"/>
<line x1="38.5927" y1="14.4401" x2="48.3366" y2="18.4523" stroke="#333333"/>
<line x1="56" y1="18.5" x2="48" y2="18.5" stroke="#333333"/>
<line x1="42.5076" y1="35.9703" x2="47.6662" y2="18.202" stroke="#333333"/>
<line x1="42.8827" y1="36.2853" x2="39.4437" y2="45.456" stroke="#333333"/>
<line x1="42.8038" y1="36.0015" x2="15.2916" y2="25.1113" stroke="#333333"/>
<line x1="3.03659" y1="19.5911" x2="15.6464" y2="24.1764" stroke="#333333"/>
<line x1="2.3672" y1="20.0993" x2="1.79402" y2="12.6481" stroke="#333333"/>
<line x1="8.45105" y1="2.55339" x2="2.14618" y2="12.8705" stroke="#333333"/>
</svg>
