<svg width="40" height="63" viewBox="0 0 40 63" fill="none" xmlns="http://www.w3.org/2000/svg">
<circle cx="24.6191" cy="1.70629" r="1.70629" fill="#333333"/>
<circle cx="16.8193" cy="2.68132" r="1.70629" fill="#333333"/>
<circle cx="15.8442" cy="16.3317" r="1.70629" fill="#333333"/>
<circle cx="20.7195" cy="21.6942" r="1.70629" fill="#333333"/>
<circle cx="29.4944" cy="21.2068" r="1.70629" fill="#333333"/>
<circle cx="37.782" cy="27.0568" r="1.70629" fill="#333333"/>
<circle cx="10.4814" cy="50.9449" r="1.70629" fill="#333333"/>
<circle cx="1.70629" cy="61.1826" r="1.70629" fill="#333333"/>
<circle cx="3.65624" cy="41.6822" r="1.70629" fill="#333333"/>
<line x1="24.9253" y1="1.95866" x2="17.1251" y2="2.93368" stroke="#333333"/>
<line x1="15.5891" y1="16.541" x2="16.5641" y2="2.40317" stroke="#333333"/>
<line x1="16.4749" y1="16.2588" x2="20.8625" y2="21.6214" stroke="#333333"/>
<line x1="29.7906" y1="21.4602" x2="20.5279" y2="22.4352" stroke="#333333"/>
<line x1="30.0561" y1="20.577" x2="38.3438" y2="27.4021" stroke="#333333"/>
<line x1="10.3997" y1="50.809" x2="37.7003" y2="27.4085" stroke="#333333"/>
<line x1="10.6174" y1="51.514" x2="1.84223" y2="61.7517" stroke="#333333"/>
<line x1="3.91012" y1="41.9757" x2="1.96007" y2="61.4761" stroke="#333333"/>
<line x1="3.03688" y1="41.596" x2="20.5873" y2="21.6081" stroke="#333333"/>
</svg>
