<svg width="49" height="64" viewBox="0 0 49 64" fill="none" xmlns="http://www.w3.org/2000/svg">
<circle cx="22.3943" cy="1.33984" r="1.33984" fill="#333333"/>
<circle cx="27.3711" cy="4.01953" r="1.33984" fill="#333333"/>
<circle cx="18.5664" cy="4.40234" r="1.33984" fill="#333333"/>
<circle cx="16.6526" cy="9.37891" r="1.33984" fill="#333333"/>
<circle cx="20.4805" cy="13.207" r="1.33984" fill="#333333"/>
<circle cx="26.2227" cy="13.9727" r="1.33984" fill="#333333"/>
<circle cx="28.9023" cy="9.76172" r="1.33984" fill="#333333"/>
<circle cx="22.7773" cy="20.0977" r="1.33984" fill="#333333"/>
<circle cx="28.9023" cy="36.1758" r="1.33984" fill="#333333"/>
<circle cx="31.1992" cy="42.3008" r="1.33984" fill="#333333"/>
<circle cx="38.8555" cy="50.7227" r="1.33984" fill="#333333"/>
<circle cx="47.6602" cy="59.9102" r="1.33984" fill="#333333"/>
<circle cx="36.5586" cy="57.6133" r="1.33984" fill="#333333"/>
<circle cx="25.457" cy="57.2305" r="1.33984" fill="#333333"/>
<circle cx="10.5273" cy="56.8477" r="1.33984" fill="#333333"/>
<circle cx="5.55078" cy="62.207" r="1.33984" fill="#333333"/>
<circle cx="1.33984" cy="56.8477" r="1.33984" fill="#333333"/>
<line x1="18.4506" y1="3.81626" x2="21.8959" y2="1.13657" stroke="#333333"/>
<line x1="27.3255" y1="4.26836" x2="22.3489" y2="1.58867" stroke="#333333"/>
<line x1="26.352" y1="14.2774" x2="20.227" y2="13.5118" stroke="#333333"/>
<line x1="16.8142" y1="9.21676" x2="20.6424" y2="13.0449" stroke="#333333"/>
<line x1="22.4944" y1="20.4472" x2="20.1975" y2="13.5566" stroke="#333333"/>
<line x1="23.0545" y1="19.7319" x2="29.1795" y2="36.1928" stroke="#333333"/>
<line x1="30.9189" y1="42.6586" x2="28.622" y2="36.1508" stroke="#333333"/>
<line x1="31.3778" y1="42.1559" x2="39.034" y2="50.5777" stroke="#333333"/>
<line x1="47.8806" y1="60.4551" x2="38.3103" y2="50.8848" stroke="#333333"/>
<line x1="48.1205" y1="60.5885" x2="36.6361" y2="57.9088" stroke="#333333"/>
<line x1="25.6654" y1="56.9222" x2="36.767" y2="57.305" stroke="#333333"/>
<line x1="25.6357" y1="57.5389" x2="10.3232" y2="57.1561" stroke="#333333"/>
<line x1="5.37579" y1="62.0582" x2="10.3524" y2="56.6988" stroke="#333333"/>
<line x1="5.33899" y1="62.6941" x2="1.12805" y2="56.9519" stroke="#333333"/>
<line x1="16.0067" y1="9.36078" x2="18.3036" y2="4.38422" stroke="#333333"/>
<line x1="26.0194" y1="13.4743" x2="28.6991" y2="10.029" stroke="#333333"/>
<line x1="28.0549" y1="3.74123" x2="29.2033" y2="10.249" stroke="#333333"/>
</svg>
