<svg width="67" height="57" viewBox="0 0 67 57" fill="none" xmlns="http://www.w3.org/2000/svg">
<circle cx="16.0111" cy="52.4668" r="1.72426" fill="#333333"/>
<circle cx="24.3859" cy="47.5403" r="1.72426" fill="#333333"/>
<circle cx="10.0993" cy="43.1065" r="1.72426" fill="#333333"/>
<circle cx="1.72426" cy="29.3124" r="1.72426" fill="#333333"/>
<circle cx="3.20204" cy="24.386" r="1.72426" fill="#333333"/>
<circle cx="11.0846" cy="16.9963" r="1.72426" fill="#333333"/>
<circle cx="24.3859" cy="21.4301" r="1.72426" fill="#333333"/>
<circle cx="28.327" cy="25.8639" r="1.72426" fill="#333333"/>
<circle cx="35.2243" cy="18.9669" r="1.72426" fill="#333333"/>
<circle cx="30.2975" cy="18.4742" r="1.72426" fill="#333333"/>
<circle cx="24.3859" cy="8.12868" r="1.72426" fill="#333333"/>
<circle cx="18.9667" cy="6.65071" r="1.72426" fill="#333333"/>
<circle cx="12.0697" cy="1.72426" r="1.72426" fill="#333333"/>
<circle cx="48.0329" cy="3.69484" r="1.72426" fill="#333333"/>
<circle cx="42.6139" cy="16.5036" r="1.72426" fill="#333333"/>
<circle cx="47.0475" cy="23.8933" r="1.72426" fill="#333333"/>
<circle cx="54.9298" cy="22.908" r="1.72426" fill="#333333"/>
<circle cx="65.2758" cy="17.4889" r="1.72426" fill="#333333"/>
<circle cx="45.5695" cy="32.761" r="1.72426" fill="#333333"/>
<circle cx="49.0185" cy="37.1947" r="1.72426" fill="#333333"/>
<circle cx="25.8639" cy="54.4374" r="1.72426" fill="#333333"/>
<circle cx="55.4225" cy="27.3419" r="1.72426" fill="#333333"/>
<circle cx="28.327" cy="4.18746" r="1.72426" fill="#333333"/>
<line x1="26.0168" y1="54.6822" x2="15.6712" y2="52.7116" stroke="#333333"/>
<line x1="24.8751" y1="47.731" x2="16.0075" y2="52.6575" stroke="#333333"/>
<line x1="10.2688" y1="43.0754" x2="16.1806" y2="51.9431" stroke="#333333"/>
<line x1="9.41866" y1="43.1083" x2="1.53633" y2="29.3142" stroke="#333333"/>
<line x1="3.4439" y1="24.7407" x2="2.45861" y2="29.1745" stroke="#333333"/>
<line x1="3.10627" y1="24.2675" x2="10.9886" y2="16.8778" stroke="#333333"/>
<line x1="24.4793" y1="21.6598" x2="10.6852" y2="17.226" stroke="#333333"/>
<line x1="25.027" y1="21.3695" x2="28.4755" y2="25.8033" stroke="#333333"/>
<line x1="35.824" y1="19.0741" x2="28.4343" y2="26.4638" stroke="#333333"/>
<line x1="35.4252" y1="19.2185" x2="30.0061" y2="18.7258" stroke="#333333"/>
<line x1="24.5684" y1="8.11775" x2="30.4801" y2="17.9707" stroke="#333333"/>
<line x1="23.8075" y1="8.0013" x2="28.2413" y2="4.06013" stroke="#333333"/>
<line x1="23.954" y1="8.83924" x2="19.0275" y2="6.86865" stroke="#333333"/>
<line x1="12.0805" y1="1.54183" x2="19.4702" y2="5.97565" stroke="#333333"/>
<line x1="35.3123" y1="18.7389" x2="42.702" y2="16.2756" stroke="#333333"/>
<line x1="48.2497" y1="3.6372" x2="42.8306" y2="16.9386" stroke="#333333"/>
<line x1="46.8654" y1="24.3969" x2="42.4316" y2="17.0072" stroke="#333333"/>
<line x1="47.2947" y1="24.2218" x2="45.8168" y2="33.0895" stroke="#333333"/>
<line x1="48.9111" y1="37.302" x2="44.9699" y2="33.3609" stroke="#333333"/>
<line x1="47.2322" y1="23.6435" x2="55.1145" y2="22.6582" stroke="#333333"/>
<line x1="65.754" y1="17.6855" x2="55.4084" y2="23.1046" stroke="#333333"/>
<line x1="55.1717" y1="27.6379" x2="54.679" y2="22.7114" stroke="#333333"/>
</svg>
