<svg width="50" height="58" viewBox="0 0 50 58" fill="none" xmlns="http://www.w3.org/2000/svg">
<circle cx="11.085" cy="1.65094" r="1.65094" fill="#333333"/>
<circle cx="1.65094" cy="12.9717" r="1.65094" fill="#333333"/>
<circle cx="20.0472" cy="16.7453" r="1.65094" fill="#333333"/>
<circle cx="22.4056" cy="29.4811" r="1.65094" fill="#333333"/>
<circle cx="22.8775" cy="23.8207" r="1.65094" fill="#333333"/>
<circle cx="28.066" cy="30.8962" r="1.65094" fill="#333333"/>
<circle cx="27.1226" cy="36.5566" r="1.65094" fill="#333333"/>
<circle cx="21.9341" cy="34.1981" r="1.65094" fill="#333333"/>
<circle cx="16.7452" cy="29.9528" r="1.65094" fill="#333333"/>
<circle cx="32.3113" cy="41.7453" r="1.65094" fill="#333333"/>
<circle cx="48.3489" cy="55.4245" r="1.65094" fill="#333333"/>
<line x1="11.7566" y1="1.64165" x2="20.2472" y2="16.736" stroke="#333333"/>
<line x1="22.6599" y1="24.268" x2="19.3581" y2="17.1926" stroke="#333333"/>
<line x1="23.6062" y1="24.1388" x2="22.6628" y2="29.7992" stroke="#333333"/>
<line x1="28.226" y1="31.1546" x2="22.0939" y2="30.2112" stroke="#333333"/>
<line x1="28.7871" y1="30.7817" x2="27.372" y2="36.442" stroke="#333333"/>
<line x1="32.1936" y1="42.3347" x2="27.0049" y2="37.146" stroke="#333333"/>
<line x1="22.3768" y1="33.9788" x2="27.5655" y2="36.3373" stroke="#333333"/>
<line x1="21.8533" y1="34.8209" x2="16.6646" y2="30.5757" stroke="#333333"/>
<line x1="1.78362" y1="12.8697" x2="17.3497" y2="29.8508" stroke="#333333"/>
<line x1="32.8772" y1="41.6056" x2="48.4432" y2="55.2848" stroke="#333333"/>
</svg>
