<svg width="32" height="63" viewBox="0 0 32 63" fill="none" xmlns="http://www.w3.org/2000/svg">
<circle cx="27.3418" cy="1.41772" r="1.41772" fill="#333333"/>
<circle cx="26.9365" cy="12.7595" r="1.41772" fill="#333333"/>
<circle cx="24.5063" cy="21.2658" r="1.41772" fill="#333333"/>
<circle cx="16" cy="22.481" r="1.41772" fill="#333333"/>
<circle cx="4.6582" cy="19.2405" r="1.41772" fill="#333333"/>
<circle cx="15.595" cy="37.0633" r="1.41772" fill="#333333"/>
<circle cx="25.7214" cy="33.4177" r="1.41772" fill="#333333"/>
<circle cx="30.5823" cy="41.9241" r="1.41772" fill="#333333"/>
<circle cx="22.886" cy="54.8861" r="1.41772" fill="#333333"/>
<circle cx="18.4304" cy="52.8608" r="1.41772" fill="#333333"/>
<circle cx="13.9746" cy="61.3671" r="1.41772" fill="#333333"/>
<circle cx="1.41772" cy="55.6962" r="1.41772" fill="#333333"/>
<circle cx="8.70898" cy="43.1393" r="1.41772" fill="#333333"/>
<line x1="27.6388" y1="1.63815" x2="27.2338" y2="12.9799" stroke="#333333"/>
<line x1="24.2226" y1="21.3526" x2="26.2479" y2="12.8462" stroke="#333333"/>
<line x1="25.2079" y1="21.4351" x2="26.018" y2="33.587" stroke="#333333"/>
<line x1="30.3598" y1="42.3898" x2="25.094" y2="33.8834" stroke="#333333"/>
<line x1="31.2089" y1="42.3916" x2="23.1076" y2="55.3536" stroke="#333333"/>
<line x1="18.4347" y1="52.6081" x2="22.8904" y2="54.6334" stroke="#333333"/>
<line x1="18.6707" y1="53.2953" x2="14.215" y2="61.8016" stroke="#333333"/>
<line x1="9.33768" y1="43.198" x2="1.64148" y2="55.7549" stroke="#333333"/>
<line x1="8.58057" y1="42.9669" x2="15.4666" y2="36.8909" stroke="#333333"/>
<line x1="16.2972" y1="22.6974" x2="15.8921" y2="37.2797" stroke="#333333"/>
<line x1="31.054" y1="42.2028" x2="15.2565" y2="37.7471" stroke="#333333"/>
<line x1="16.0697" y1="22.7604" x2="4.32284" y2="19.5199" stroke="#333333"/>
<line x1="16.1319" y1="22.1886" x2="24.6383" y2="20.9734" stroke="#333333"/>
</svg>
