<svg width="395" height="574" viewBox="0 0 395 574" fill="none" xmlns="http://www.w3.org/2000/svg">
<path d="M209.127 573.864H206.127L212.127 172.864H215.127L209.127 573.864Z" fill="#3F3D56"/>
<path d="M291.127 573.864H288.127L282.127 172.864H285.127L291.127 573.864Z" fill="#3F3D56"/>
<path d="M283.127 180.864H213.127V183.864H283.127V180.864Z" fill="#3F3D56"/>
<path d="M283.127 232.864H213.127V235.864H283.127V232.864Z" fill="#3F3D56"/>
<path d="M285.127 284.864H212.127V287.864H285.127V284.864Z" fill="#3F3D56"/>
<path d="M286.127 336.864H212.127V339.864H286.127V336.864Z" fill="#3F3D56"/>
<path d="M287.127 388.864H211.127V391.864H287.127V388.864Z" fill="#3F3D56"/>
<path d="M287.127 440.864H210.127V443.864H287.127V440.864Z" fill="#3F3D56"/>
<path d="M288.127 492.864H209.127V495.864H288.127V492.864Z" fill="#3F3D56"/>
<path d="M289.127 544.864H207.127V547.864H289.127V544.864Z" fill="#3F3D56"/>
<path d="M244.795 368.23C267.997 368.23 286.807 349.42 286.807 326.217C286.807 303.015 267.997 284.205 244.795 284.205C221.592 284.205 202.782 303.015 202.782 326.217C202.782 349.42 221.592 368.23 244.795 368.23Z" fill="#2F2E41"/>
<path d="M269.506 355.256L256.947 357.529L261.021 380.031L273.58 377.758L269.506 355.256Z" fill="#2F2E41"/>
<path d="M244.388 359.803L231.829 362.076L235.902 384.578L248.462 382.304L244.388 359.803Z" fill="#2F2E41"/>
<path d="M242.57 389.309C247.052 385.513 249.532 381.073 248.108 379.392C246.685 377.711 241.897 379.426 237.414 383.222C232.932 387.018 230.452 391.458 231.876 393.139C233.299 394.82 238.087 393.106 242.57 389.309Z" fill="#2F2E41"/>
<path d="M267.164 384.857C271.647 381.061 274.127 376.62 272.703 374.939C271.28 373.258 266.492 374.973 262.009 378.77C257.526 382.566 255.047 387.006 256.47 388.687C257.894 390.368 262.682 388.653 267.164 384.857Z" fill="#2F2E41"/>
<path d="M241.853 330.3C249.783 330.3 256.212 323.871 256.212 315.941C256.212 308.011 249.783 301.582 241.853 301.582C233.923 301.582 227.495 308.011 227.495 315.941C227.495 323.871 233.923 330.3 241.853 330.3Z" fill="white"/>
<path d="M235.952 315.58C238.595 315.58 240.738 313.438 240.738 310.794C240.738 308.151 238.595 306.008 235.952 306.008C233.308 306.008 231.166 308.151 231.166 310.794C231.166 313.438 233.308 315.58 235.952 315.58Z" fill="#3F3D56"/>
<path d="M277.936 280.512C278.568 264.959 265.163 251.785 247.995 251.088C230.828 250.39 216.398 262.434 215.767 277.987C215.135 293.541 227.069 297.075 244.236 297.772C261.404 298.469 277.304 296.066 277.936 280.512Z" fill="url(#paint0_linear)"/>
<path d="M226.477 323.257C227.291 319.707 218.783 314.728 207.475 312.136C196.167 309.544 186.34 310.32 185.527 313.87C184.713 317.42 193.22 322.399 204.528 324.991C215.836 327.583 225.663 326.807 226.477 323.257Z" fill="#2F2E41"/>
<path d="M308.946 336.971C309.759 333.421 301.252 328.442 289.944 325.85C278.636 323.258 268.809 324.035 267.995 327.585C267.182 331.135 275.689 336.114 286.997 338.706C298.305 341.298 308.132 340.521 308.946 336.971Z" fill="#2F2E41"/>
<path d="M256.333 342.774C256.559 344.011 256.539 345.281 256.275 346.51C256.01 347.74 255.505 348.905 254.79 349.939C254.075 350.974 253.163 351.857 252.106 352.539C251.049 353.221 249.868 353.688 248.631 353.913C247.394 354.138 246.124 354.117 244.895 353.852C243.666 353.586 242.501 353.081 241.467 352.365C240.433 351.649 239.55 350.736 238.869 349.679C238.188 348.621 237.722 347.44 237.498 346.203L237.494 346.184C236.553 340.982 240.575 339.141 245.777 338.2C250.979 337.258 255.391 337.572 256.333 342.774Z" fill="white"/>
<path d="M389.655 77.2405L120.732 101.342C119.412 101.459 118.099 101.047 117.082 100.197C116.064 99.3475 115.426 98.1288 115.306 96.8086L109.327 30.1004C109.21 28.78 109.622 27.4671 110.472 26.4498C111.322 25.4326 112.541 24.7939 113.861 24.674L382.783 0.57221C384.104 0.455431 385.417 0.867163 386.434 1.71709C387.451 2.56702 388.09 3.78574 388.21 5.10592L394.188 71.8141C394.305 73.1346 393.893 74.4474 393.044 75.4647C392.194 76.482 390.975 77.1206 389.655 77.2405V77.2405ZM114.039 26.6661C113.247 26.7379 112.516 27.1211 112.006 27.7315C111.496 28.3418 111.249 29.1296 111.319 29.9219L117.298 96.6301C117.37 97.4222 117.753 98.1535 118.363 98.6635C118.974 99.1734 119.761 99.4205 120.554 99.3503L389.476 75.2485C390.268 75.1766 391 74.7935 391.51 74.1831C392.019 73.5727 392.267 72.7849 392.196 71.9927L386.218 5.28444C386.146 4.49231 385.763 3.76104 385.152 3.25107C384.542 2.7411 383.754 2.49408 382.962 2.56421L114.039 26.6661Z" fill="#2F2E41"/>
<path d="M152.157 80.8836C163.755 80.8836 173.157 71.4816 173.157 59.8836C173.157 48.2856 163.755 38.8836 152.157 38.8836C140.559 38.8836 131.157 48.2856 131.157 59.8836C131.157 71.4816 140.559 80.8836 152.157 80.8836Z" fill="url(#paint1_linear)"/>
<path d="M199.213 41.6101C198.756 41.6511 198.31 41.7819 197.903 41.995C197.496 42.2081 197.135 42.4993 196.84 42.852C196.545 43.2048 196.323 43.6121 196.186 44.0507C196.048 44.4894 195.999 44.9508 196.04 45.4086C196.081 45.8664 196.212 46.3116 196.425 46.7188C196.638 47.1261 196.929 47.4873 197.282 47.782C197.635 48.0767 198.042 48.2991 198.48 48.4364C198.919 48.5736 199.381 48.6232 199.838 48.5821L364.18 33.8533C364.637 33.8123 365.083 33.6815 365.49 33.4684C365.897 33.2553 366.258 32.964 366.553 32.6113C366.848 32.2586 367.07 31.8513 367.207 31.4127C367.345 30.974 367.394 30.5126 367.353 30.0548C367.312 29.597 367.181 29.1518 366.968 28.7446C366.755 28.3373 366.464 27.976 366.111 27.6813C365.759 27.3866 365.351 27.1643 364.913 27.027C364.474 26.8897 364.013 26.8402 363.555 26.8812L199.213 41.6101Z" fill="url(#paint2_linear)"/>
<path d="M201.088 62.5263C200.629 62.5656 200.182 62.6952 199.773 62.9076C199.364 63.12 199.001 63.4111 198.705 63.7641C198.409 64.1172 198.186 64.5252 198.048 64.9648C197.909 65.4044 197.86 65.867 197.901 66.3259C197.942 66.7849 198.073 67.2312 198.287 67.6393C198.501 68.0474 198.794 68.4091 199.148 68.7039C199.502 68.9986 199.911 69.2205 200.351 69.3568C200.791 69.4931 201.254 69.5412 201.713 69.4983L366.054 54.7694C366.978 54.6856 367.831 54.2385 368.425 53.5263C369.02 52.8142 369.307 51.8952 369.224 50.9713C369.141 50.0474 368.695 49.1941 367.984 48.599C367.272 48.0039 366.353 47.7156 365.429 47.7974L201.088 62.5263Z" fill="url(#paint3_linear)"/>
<path d="M291.5 92.907C295.746 81.7981 296.361 71.7119 292.874 70.379C289.387 69.046 283.117 76.971 278.871 88.0799C274.625 99.1888 274.01 109.275 277.498 110.608C280.985 111.941 287.254 104.016 291.5 92.907Z" fill="#2F2E41"/>
<path d="M287.89 129.914C291.7 106.436 275.756 84.3143 252.277 80.5043C228.799 76.6943 206.677 92.6386 202.867 116.117C199.057 139.595 215.002 161.717 238.48 165.527C261.958 169.337 284.08 153.392 287.89 129.914Z" fill="#2F2E41"/>
<path d="M238.837 156.815H225.753V180.257H238.837V156.815Z" fill="#2F2E41"/>
<path d="M265.004 156.815H251.92V180.257H265.004V156.815Z" fill="#2F2E41"/>
<path d="M236.656 184.618C242.678 184.618 247.559 182.788 247.559 180.529C247.559 178.271 242.678 176.441 236.656 176.441C230.634 176.441 225.753 178.271 225.753 180.529C225.753 182.788 230.634 184.618 236.656 184.618Z" fill="#2F2E41"/>
<path d="M262.824 184.073C268.845 184.073 273.727 182.242 273.727 179.984C273.727 177.726 268.845 175.896 262.824 175.896C256.802 175.896 251.92 177.726 251.92 179.984C251.92 182.242 256.802 184.073 262.824 184.073Z" fill="#2F2E41"/>
<path d="M203.602 82.9641C200.125 67.3903 211.241 51.6537 228.431 47.8153C245.621 43.9769 262.375 53.4904 265.852 69.0642C269.33 84.638 257.937 90.3818 240.748 94.2201C223.558 98.0585 207.08 98.5379 203.602 82.9641Z" fill="url(#paint4_linear)"/>
<path d="M216.327 112.26C217.927 108.887 210.513 102.021 199.768 96.9241C189.022 91.8278 179.014 90.431 177.414 93.8043C175.815 97.1776 183.228 104.044 193.974 109.14C204.719 114.236 214.727 115.633 216.327 112.26Z" fill="#2F2E41"/>
<path d="M156.351 393.883C160.597 382.774 161.212 372.688 157.725 371.355C154.237 370.022 147.968 377.947 143.722 389.056C139.476 400.165 138.861 410.251 142.348 411.584C145.836 412.917 152.105 404.992 156.351 393.883Z" fill="#2F2E41"/>
<path d="M161.74 439.891C165.55 416.412 149.606 394.291 126.128 390.481C102.649 386.671 80.528 402.615 76.718 426.093C72.908 449.572 88.8522 471.693 112.331 475.503C135.809 479.313 157.93 463.369 161.74 439.891Z" fill="#2F2E41"/>
<path d="M99.604 466.792H112.687L110.127 494.864L99.604 490.233V466.792Z" fill="#2F2E41"/>
<path d="M110.664 503.112C112.654 502.044 111.957 496.877 109.109 491.572C106.26 486.266 102.338 482.832 100.349 483.9C98.3594 484.968 99.0558 490.135 101.904 495.44C104.753 500.745 108.675 504.18 110.664 503.112Z" fill="#2F2E41"/>
<path d="M128.127 466.864H141.211L138.651 494.937L128.127 490.306V466.864Z" fill="#2F2E41"/>
<path d="M139.188 503.185C141.178 502.117 140.481 496.95 137.633 491.645C134.784 486.339 130.862 482.904 128.873 483.973C126.883 485.041 127.58 490.208 130.428 495.513C133.277 500.818 137.199 504.253 139.188 503.185Z" fill="#2F2E41"/>
<path d="M120.319 436.808C128.449 436.808 135.039 430.218 135.039 422.089C135.039 413.96 128.449 407.37 120.319 407.37C112.19 407.37 105.6 413.96 105.6 422.089C105.6 430.218 112.19 436.808 120.319 436.808Z" fill="white"/>
<path d="M120.32 426.995C123.029 426.995 125.226 424.798 125.226 422.089C125.226 419.379 123.029 417.182 120.32 417.182C117.61 417.182 115.413 419.379 115.413 422.089C115.413 424.798 117.61 426.995 120.32 426.995Z" fill="#3F3D56"/>
<path d="M77.4526 392.94C73.9751 377.367 85.0913 361.63 102.281 357.792C119.471 353.953 136.225 363.467 139.703 379.04C143.18 394.614 131.788 400.358 114.598 404.196C97.4081 408.035 80.9301 408.514 77.4526 392.94Z" fill="#F2F2F2"/>
<path d="M86.5147 420.33C89.5178 418.111 86.2244 408.558 79.1587 398.992C72.0929 389.426 63.9305 383.469 60.9274 385.687C57.9243 387.905 61.2177 397.459 68.2834 407.025C75.3491 416.591 83.5116 422.548 86.5147 420.33Z" fill="#2F2E41"/>
<path d="M140.242 455.198C140.242 451.724 131.297 444.864 121.371 444.864C111.445 444.864 102.139 454.645 102.139 458.119C102.139 461.593 111.445 457.445 121.371 457.445C131.297 457.445 140.242 458.672 140.242 455.198Z" fill="white"/>
<path d="M95.127 396.935C82.6499 396.94 70.2942 394.487 58.7659 389.714C47.2376 384.942 36.7628 377.945 27.9402 369.122C19.1176 360.3 12.1201 349.825 7.34779 338.297C2.57543 326.768 0.121741 314.413 0.126961 301.936C0.126961 301.737 0.12745 301.527 0.13868 301.329C0.42968 249.303 43.042 206.936 95.127 206.936C116.558 206.939 137.358 214.187 154.15 227.503C170.942 240.818 182.74 259.42 187.626 280.287C192.512 301.153 190.201 323.059 181.067 342.446C171.933 361.833 156.513 377.563 137.312 387.081C124.208 393.601 109.764 396.976 95.127 396.935ZM95.127 208.936C70.5735 208.99 47.0334 218.731 29.6215 236.043C12.2096 253.355 2.33287 276.838 2.13725 301.391C2.1265 301.604 2.12696 301.774 2.12696 301.936C2.12062 325.52 11.0751 348.226 27.1778 365.458C43.2806 382.69 65.3288 393.16 88.8597 394.749C112.391 396.339 135.647 388.929 153.92 374.019C172.194 359.109 184.121 337.814 187.286 314.442C189.074 301.293 188.026 287.913 184.213 275.201C180.401 262.49 173.911 250.743 165.181 240.748C156.45 230.753 145.682 222.743 133.599 217.256C121.515 211.769 108.398 208.932 95.127 208.936Z" fill="#3F3D56"/>
<path d="M115.431 282.208C117.39 280.261 120.604 280.226 122.247 282.445C131.942 295.543 130.855 314.114 118.984 325.984C105.916 339.052 84.7292 339.052 71.6614 325.984C59.7909 314.114 58.7033 295.543 68.3985 282.445C70.0414 280.226 73.2559 280.261 75.2145 282.208C94.2654 301.141 96.3801 301.141 115.431 282.208Z" fill="url(#paint5_linear)"/>
<defs>
<linearGradient id="paint0_linear" x1="215.743" y1="273.836" x2="277.958" y2="273.836" gradientUnits="userSpaceOnUse">
<stop stop-color="#0094FF"/>
<stop offset="1" stop-color="#0066AF"/>
</linearGradient>
<linearGradient id="paint1_linear" x1="131.157" y1="59.316" x2="173.157" y2="59.316" gradientUnits="userSpaceOnUse">
<stop stop-color="#0094FF"/>
<stop offset="1" stop-color="#0066AF"/>
</linearGradient>
<linearGradient id="paint2_linear" x1="196.026" y1="37.4381" x2="367.367" y2="37.438" gradientUnits="userSpaceOnUse">
<stop stop-color="#0094FF"/>
<stop offset="1" stop-color="#0066AF"/>
</linearGradient>
<linearGradient id="paint3_linear" x1="197.887" y1="58.355" x2="369.238" y2="58.355" gradientUnits="userSpaceOnUse">
<stop stop-color="#0094FF"/>
<stop offset="1" stop-color="#0066AF"/>
</linearGradient>
<linearGradient id="paint4_linear" x1="202.965" y1="71.0494" x2="266.478" y2="71.0494" gradientUnits="userSpaceOnUse">
<stop stop-color="#0094FF"/>
<stop offset="1" stop-color="#0066AF"/>
</linearGradient>
<linearGradient id="paint5_linear" x1="71.0219" y1="325.345" x2="118.345" y2="278.022" gradientUnits="userSpaceOnUse">
<stop stop-color="#0094FF"/>
<stop offset="1" stop-color="#0066AF"/>
</linearGradient>
</defs>
</svg>
