<svg width="244" height="43" viewBox="0 0 244 43" fill="none" xmlns="http://www.w3.org/2000/svg">
<path d="M28.385 9.5L23.485 34H17.815L19.81 24.025H8.715L6.72 34H1.015L5.915 9.5H11.62L9.695 19.125H20.79L22.715 9.5H28.385ZM38.7666 34.28C36.8766 34.28 35.2083 33.93 33.7616 33.23C32.3383 32.53 31.2299 31.55 30.4366 30.29C29.6666 29.0067 29.2816 27.525 29.2816 25.845C29.2816 23.7683 29.7716 21.9017 30.7516 20.245C31.7316 18.5883 33.0849 17.2817 34.8116 16.325C36.5383 15.3683 38.4866 14.89 40.6566 14.89C42.5699 14.89 44.2383 15.24 45.6616 15.94C47.0849 16.64 48.1816 17.6317 48.9516 18.915C49.7449 20.175 50.1416 21.645 50.1416 23.325C50.1416 25.4017 49.6516 27.2683 48.6716 28.925C47.7149 30.5817 46.3616 31.8883 44.6116 32.845C42.8849 33.8017 40.9366 34.28 38.7666 34.28ZM39.1166 29.765C40.1666 29.765 41.1116 29.5083 41.9516 28.995C42.7916 28.4583 43.4449 27.7233 43.9116 26.79C44.3783 25.8567 44.6116 24.7833 44.6116 23.57C44.6116 22.2867 44.2383 21.2717 43.4916 20.525C42.7449 19.7783 41.6949 19.405 40.3416 19.405C39.2683 19.405 38.3116 19.6733 37.4716 20.21C36.6316 20.7233 35.9783 21.4467 35.5116 22.38C35.0449 23.3133 34.8116 24.3867 34.8116 25.6C34.8116 26.8833 35.1849 27.8983 35.9316 28.645C36.7016 29.3917 37.7633 29.765 39.1166 29.765ZM60.302 17.41C61.1187 16.5233 62.0987 15.8817 63.242 15.485C64.4087 15.0883 65.7737 14.89 67.337 14.89L66.357 19.93C65.7037 19.8833 65.2837 19.86 65.097 19.86C63.4403 19.86 62.1103 20.2683 61.107 21.085C60.127 21.9017 59.462 23.1733 59.112 24.9L57.292 34H51.832L55.577 15.17H60.757L60.302 17.41ZM76.4326 34.28C74.5426 34.28 72.8743 33.93 71.4276 33.23C70.0043 32.53 68.896 31.55 68.1026 30.29C67.3326 29.0067 66.9476 27.525 66.9476 25.845C66.9476 23.7683 67.4376 21.9017 68.4176 20.245C69.3976 18.5883 70.751 17.2817 72.4776 16.325C74.2043 15.3683 76.1526 14.89 78.3226 14.89C80.236 14.89 81.9043 15.24 83.3276 15.94C84.751 16.64 85.8476 17.6317 86.6176 18.915C87.411 20.175 87.8076 21.645 87.8076 23.325C87.8076 25.4017 87.3176 27.2683 86.3376 28.925C85.381 30.5817 84.0276 31.8883 82.2776 32.845C80.551 33.8017 78.6026 34.28 76.4326 34.28ZM76.7826 29.765C77.8326 29.765 78.7776 29.5083 79.6176 28.995C80.4576 28.4583 81.111 27.7233 81.5776 26.79C82.0443 25.8567 82.2776 24.7833 82.2776 23.57C82.2776 22.2867 81.9043 21.2717 81.1576 20.525C80.411 19.7783 79.361 19.405 78.0076 19.405C76.9343 19.405 75.9776 19.6733 75.1376 20.21C74.2976 20.7233 73.6443 21.4467 73.1776 22.38C72.711 23.3133 72.4776 24.3867 72.4776 25.6C72.4776 26.8833 72.851 27.8983 73.5976 28.645C74.3676 29.3917 75.4293 29.765 76.7826 29.765ZM96.358 34.28C94.7247 34.28 93.173 34.105 91.703 33.755C90.2563 33.3817 89.1247 32.9033 88.308 32.32L90.408 28.365C91.2247 28.9017 92.2163 29.3333 93.383 29.66C94.573 29.9867 95.763 30.15 96.953 30.15C98.1897 30.15 99.1113 29.9983 99.718 29.695C100.325 29.3683 100.628 28.9133 100.628 28.33C100.628 27.8633 100.36 27.525 99.823 27.315C99.2863 27.105 98.423 26.8833 97.233 26.65C95.8797 26.3933 94.7597 26.1133 93.873 25.81C93.0097 25.5067 92.2513 25.0167 91.598 24.34C90.968 23.64 90.653 22.695 90.653 21.505C90.653 19.4283 91.5163 17.8067 93.243 16.64C94.993 15.4733 97.2797 14.89 100.103 14.89C101.41 14.89 102.681 15.03 103.918 15.31C105.155 15.59 106.205 15.975 107.068 16.465L105.108 20.455C103.568 19.4983 101.713 19.02 99.543 19.02C98.353 19.02 97.443 19.195 96.813 19.545C96.2063 19.895 95.903 20.3383 95.903 20.875C95.903 21.365 96.1713 21.7267 96.708 21.96C97.2447 22.17 98.143 22.4033 99.403 22.66C100.733 22.9167 101.818 23.1967 102.658 23.5C103.521 23.78 104.268 24.2583 104.898 24.935C105.528 25.6117 105.843 26.5333 105.843 27.7C105.843 29.8 104.956 31.4217 103.183 32.565C101.433 33.7083 99.158 34.28 96.358 34.28ZM118.032 34.28C116.095 34.28 114.403 33.93 112.957 33.23C111.51 32.53 110.39 31.55 109.597 30.29C108.827 29.0067 108.442 27.525 108.442 25.845C108.442 23.7683 108.932 21.9017 109.912 20.245C110.892 18.5883 112.257 17.2817 114.007 16.325C115.757 15.3683 117.728 14.89 119.922 14.89C121.928 14.89 123.655 15.31 125.102 16.15C126.572 16.9667 127.668 18.1333 128.392 19.65L123.772 21.96C122.955 20.2567 121.555 19.405 119.572 19.405C118.498 19.405 117.53 19.6733 116.667 20.21C115.827 20.7233 115.162 21.4467 114.672 22.38C114.205 23.3133 113.972 24.375 113.972 25.565C113.972 26.8483 114.357 27.875 115.127 28.645C115.897 29.3917 116.97 29.765 118.347 29.765C120.353 29.765 121.893 28.925 122.967 27.245L126.992 29.765C126.082 31.1883 124.833 32.2967 123.247 33.09C121.683 33.8833 119.945 34.28 118.032 34.28ZM138.366 34.28C136.476 34.28 134.808 33.93 133.361 33.23C131.938 32.53 130.83 31.55 130.036 30.29C129.266 29.0067 128.881 27.525 128.881 25.845C128.881 23.7683 129.371 21.9017 130.351 20.245C131.331 18.5883 132.685 17.2817 134.411 16.325C136.138 15.3683 138.086 14.89 140.256 14.89C142.17 14.89 143.838 15.24 145.261 15.94C146.685 16.64 147.781 17.6317 148.551 18.915C149.345 20.175 149.741 21.645 149.741 23.325C149.741 25.4017 149.251 27.2683 148.271 28.925C147.315 30.5817 145.961 31.8883 144.211 32.845C142.485 33.8017 140.536 34.28 138.366 34.28ZM138.716 29.765C139.766 29.765 140.711 29.5083 141.551 28.995C142.391 28.4583 143.045 27.7233 143.511 26.79C143.978 25.8567 144.211 24.7833 144.211 23.57C144.211 22.2867 143.838 21.2717 143.091 20.525C142.345 19.7783 141.295 19.405 139.941 19.405C138.868 19.405 137.911 19.6733 137.071 20.21C136.231 20.7233 135.578 21.4467 135.111 22.38C134.645 23.3133 134.411 24.3867 134.411 25.6C134.411 26.8833 134.785 27.8983 135.531 28.645C136.301 29.3917 137.363 29.765 138.716 29.765ZM165.747 14.89C167.217 14.89 168.57 15.2283 169.807 15.905C171.067 16.5817 172.058 17.5617 172.782 18.845C173.528 20.105 173.902 21.5983 173.902 23.325C173.902 25.4017 173.435 27.28 172.502 28.96C171.592 30.6167 170.343 31.9233 168.757 32.88C167.17 33.8133 165.408 34.28 163.472 34.28C160.602 34.28 158.572 33.3467 157.382 31.48L155.527 40.79H150.067L155.177 15.17H160.357L159.972 17.025C161.535 15.6017 163.46 14.89 165.747 14.89ZM162.842 29.765C163.915 29.765 164.872 29.5083 165.712 28.995C166.552 28.4583 167.205 27.7233 167.672 26.79C168.138 25.8567 168.372 24.7833 168.372 23.57C168.372 22.2867 167.987 21.2717 167.217 20.525C166.47 19.7783 165.42 19.405 164.067 19.405C163.017 19.405 162.072 19.6733 161.232 20.21C160.392 20.7233 159.738 21.4467 159.272 22.38C158.805 23.3133 158.572 24.3867 158.572 25.6C158.572 26.8833 158.945 27.8983 159.692 28.645C160.438 29.3917 161.488 29.765 162.842 29.765Z" fill="#333333"/>
<path d="M183.927 15.905H176.752L178.047 9.5H200.657L199.362 15.905H192.187L188.582 34H180.322L183.927 15.905ZM234.743 14.505C236.05 14.505 237.31 14.855 238.523 15.555C239.737 16.255 240.717 17.2817 241.463 18.635C242.233 19.965 242.618 21.54 242.618 23.36C242.618 25.4133 242.152 27.28 241.218 28.96C240.308 30.64 239.072 31.9583 237.508 32.915C235.945 33.8717 234.253 34.35 232.433 34.35C229.867 34.35 228.047 33.5567 226.973 31.97L225.188 40.79H217.278L222.458 14.855H229.913L229.563 16.605C231.01 15.205 232.737 14.505 234.743 14.505ZM231.138 28.12C232.165 28.12 232.993 27.7233 233.623 26.93C234.277 26.1367 234.603 25.075 234.603 23.745C234.603 22.835 234.347 22.1117 233.833 21.575C233.343 21.015 232.655 20.735 231.768 20.735C230.742 20.735 229.902 21.1317 229.248 21.925C228.618 22.7183 228.303 23.78 228.303 25.11C228.303 26.02 228.548 26.755 229.038 27.315C229.552 27.8517 230.252 28.12 231.138 28.12Z" fill="url(#paint0_linear)"/>
<path d="M214.005 17.9928C214.593 17.4088 215.557 17.3983 216.05 18.0644C218.943 21.9785 218.617 27.5251 215.071 31.0711C211.166 34.9764 204.834 34.9764 200.929 31.0711C197.383 27.5251 197.057 21.9785 199.95 18.0644C200.443 17.3983 201.407 17.4088 201.995 17.9928C207.683 23.6455 208.317 23.6455 214.005 17.9928Z" fill="url(#paint1_linear)"/>
<defs>
<linearGradient id="paint0_linear" x1="-1.64797e-06" y1="20.9189" x2="244" y2="20.9189" gradientUnits="userSpaceOnUse">
<stop stop-color="#0094FF"/>
<stop offset="1" stop-color="#0066AF"/>
</linearGradient>
<linearGradient id="paint1_linear" x1="200.738" y1="30.88" x2="214.88" y2="16.7379" gradientUnits="userSpaceOnUse">
<stop stop-color="#0094FF"/>
<stop offset="1" stop-color="#0066AF"/>
</linearGradient>
</defs>
</svg>
