<svg width="68" height="68" viewBox="0 0 68 68" fill="none" xmlns="http://www.w3.org/2000/svg">
<path d="M37.7376 30.2584C38.3269 29.6761 39.2939 29.6653 39.7524 30.3553C41.6877 33.2681 41.3713 37.2352 38.8032 39.8033C35.8743 42.7322 31.1255 42.7322 28.1966 39.8033C25.6285 37.2352 25.3121 33.2681 27.2474 30.3553C27.7059 29.6653 28.673 29.6761 29.2623 30.2584C33.1969 34.1461 33.8029 34.1461 37.7376 30.2584Z" fill="#333333"/>
<path d="M41.2325 57.5362C36.2099 59.1237 30.8141 59.0841 25.8152 57.4231C20.8164 55.7621 16.4699 52.5645 13.3961 48.2868C10.3223 44.009 8.67827 38.8697 8.69858 33.6021C8.71888 28.3346 10.4025 23.2081 13.5092 18.9541C16.6159 14.7002 20.9869 11.5363 25.9984 9.91385C31.0099 8.29143 36.4058 8.29344 41.4161 9.91958C46.4264 11.5457 50.795 14.7129 53.8985 18.9691C57.0021 23.2254 58.6819 28.3532 58.6983 33.6207L49.9483 33.6479C49.9377 30.224 48.8458 26.891 46.8285 24.1244C44.8112 21.3579 41.9716 19.2992 38.7149 18.2422C35.4582 17.1852 31.9509 17.1839 28.6934 18.2385C25.4359 19.293 22.5948 21.3496 20.5754 24.1147C18.5561 26.8797 17.4617 30.212 17.4485 33.6359C17.4353 37.0598 18.5039 40.4003 20.5019 43.1809C22.4999 45.9614 25.3251 48.0398 28.5743 49.1195C31.8236 50.1991 35.3308 50.2249 38.5956 49.193L41.2325 57.5362Z" fill="url(#paint0_linear)"/>
<defs>
<linearGradient id="paint0_linear" x1="10.8588" y1="43.8872" x2="55.9543" y2="22.291" gradientUnits="userSpaceOnUse">
<stop stop-color="#0094FF"/>
<stop offset="1" stop-color="#0066AF"/>
</linearGradient>
</defs>
</svg>
