<svg width="250" height="250" viewBox="0 0 250 250" fill="none" xmlns="http://www.w3.org/2000/svg">
<path d="M217.88 54.8561C231.756 54.8561 243.004 42.5761 243.004 27.428C243.004 12.28 231.756 0 217.88 0C204.004 0 192.756 12.28 192.756 27.428C192.756 42.5761 204.004 54.8561 217.88 54.8561Z" fill="#E6E6E6"/>
<path d="M215.409 11.6907C217.001 11.6907 218.292 10.2815 218.292 8.54317C218.292 6.80487 217.001 5.39569 215.409 5.39569C213.817 5.39569 212.526 6.80487 212.526 8.54317C212.526 10.2815 213.817 11.6907 215.409 11.6907Z" fill="#CBCBCB"/>
<path d="M220.351 43.1656C221.944 43.1656 223.234 41.7564 223.234 40.0181C223.234 38.2798 221.944 36.8706 220.351 36.8706C218.759 36.8706 217.468 38.2798 217.468 40.0181C217.468 41.7564 218.759 43.1656 220.351 43.1656Z" fill="#CBCBCB"/>
<path d="M231.472 24.7304C232.61 24.7304 233.532 23.7238 233.532 22.4822C233.532 21.2405 232.61 20.234 231.472 20.234C230.335 20.234 229.413 21.2405 229.413 22.4822C229.413 23.7238 230.335 24.7304 231.472 24.7304Z" fill="#CBCBCB"/>
<path d="M207.995 36.8707C211.635 36.8707 214.585 33.6497 214.585 29.6764C214.585 25.7032 211.635 22.4822 207.995 22.4822C204.356 22.4822 201.405 25.7032 201.405 29.6764C201.405 33.6497 204.356 36.8707 207.995 36.8707Z" fill="#CBCBCB"/>
<path d="M131.387 74.1907C133.662 74.1907 135.506 72.1776 135.506 69.6943C135.506 67.211 133.662 65.1979 131.387 65.1979C129.113 65.1979 127.269 67.211 127.269 69.6943C127.269 72.1776 129.113 74.1907 131.387 74.1907Z" fill="url(#paint0_linear)"/>
<path d="M241.769 85.8813C244.044 85.8813 245.888 83.8682 245.888 81.3849C245.888 78.9016 244.044 76.8885 241.769 76.8885C239.494 76.8885 237.65 78.9016 237.65 81.3849C237.65 83.8682 239.494 85.8813 241.769 85.8813Z" fill="url(#paint1_linear)"/>
<path d="M192.756 92.6259C194.121 92.6259 195.227 91.418 195.227 89.928C195.227 88.4381 194.121 87.2302 192.756 87.2302C191.391 87.2302 190.285 88.4381 190.285 89.928C190.285 91.418 191.391 92.6259 192.756 92.6259Z" fill="#E6E6E6"/>
<path d="M2.47124 177.608C3.83606 177.608 4.94247 176.4 4.94247 174.91C4.94247 173.42 3.83606 172.212 2.47124 172.212C1.10641 172.212 0 173.42 0 174.91C0 176.4 1.10641 177.608 2.47124 177.608Z" fill="#E6E6E6"/>
<path d="M148.686 250C150.05 250 151.157 248.792 151.157 247.302C151.157 245.812 150.05 244.604 148.686 244.604C147.321 244.604 146.214 245.812 146.214 247.302C146.214 248.792 147.321 250 148.686 250Z" fill="#E6E6E6"/>
<path d="M187.403 169.98L186.169 171.318L184.944 169.971L184.122 170.863L185.347 172.209L184.113 173.546L184.93 174.444L186.164 173.107L187.389 174.453L188.211 173.562L186.986 172.215L188.219 170.878L187.403 169.98Z" fill="#6C63FF"/>
<path d="M23.8889 214.045L22.6553 215.382L21.4305 214.036L20.608 214.927L21.8332 216.274L20.5996 217.611L21.4164 218.509L22.6496 217.172L23.8749 218.518L24.6974 217.627L23.4721 216.28L24.7057 214.943L23.8889 214.045Z" fill="#E6E6E6"/>
<path d="M33.7742 135.807L32.5406 137.145L31.3157 135.798L30.4932 136.69L31.7184 138.036L30.4849 139.374L31.3017 140.271L32.5349 138.934L33.7601 140.281L34.5826 139.389L33.3574 138.043L34.591 136.705L33.7742 135.807Z" fill="#E6E6E6"/>
<path d="M249.183 52.6242L247.95 53.9613L246.725 52.6151L245.902 53.5064L247.128 54.853L245.894 56.1906L246.711 57.0881L247.944 55.751L249.169 57.0973L249.992 56.206L248.767 54.8593L250 53.5217L249.183 52.6242Z" fill="#E6E6E6"/>
<path d="M151.982 89.9444L150.748 91.2819L149.523 89.9352L148.701 90.827L149.926 92.1732L148.692 93.5108L149.509 94.4088L150.742 93.0712L151.968 94.4179L152.79 93.5261L151.565 92.1795L152.798 90.8423L151.982 89.9444Z" fill="#E6E6E6"/>
<path opacity="0.8" d="M160.536 156.615L173.051 140.621L185.565 124.627L192.63 115.598C193.021 115.099 192.417 114.319 192.027 114.819L179.512 130.813L166.998 146.807L159.933 155.836C159.542 156.335 160.146 157.115 160.536 156.615V156.615Z" fill="url(#paint2_linear)"/>
<path opacity="0.8" d="M138.295 214.169L150.809 198.175L163.324 182.181L170.388 173.152C170.779 172.653 170.176 171.873 169.785 172.373L157.271 188.367L144.756 204.361L137.692 213.39C137.301 213.889 137.904 214.669 138.295 214.169V214.169Z" fill="url(#paint3_linear)"/>
<path d="M113.471 145.459L113.578 145.692L113.471 145.908V145.459Z" fill="black"/>
<defs>
<linearGradient id="paint0_linear" x1="131.387" y1="65.1979" x2="131.387" y2="74.1907" gradientUnits="userSpaceOnUse">
<stop stop-color="#00E8BE"/>
<stop offset="1" stop-color="#00AFBA"/>
</linearGradient>
<linearGradient id="paint1_linear" x1="241.769" y1="76.8885" x2="241.769" y2="85.8813" gradientUnits="userSpaceOnUse">
<stop stop-color="#00E8BE"/>
<stop offset="1" stop-color="#00AFBA"/>
</linearGradient>
<linearGradient id="paint2_linear" x1="159.807" y1="135.717" x2="192.756" y2="135.717" gradientUnits="userSpaceOnUse">
<stop stop-color="white"/>
<stop offset="1" stop-color="white" stop-opacity="0.3"/>
</linearGradient>
<linearGradient id="paint3_linear" x1="20937.9" y1="22724.3" x2="23798.3" y2="22724.3" gradientUnits="userSpaceOnUse">
<stop stop-color="white"/>
<stop offset="1" stop-color="white" stop-opacity="0.3"/>
</linearGradient>
</defs>
</svg>
